<?xml version="1.0" encoding="UTF-8" standalone="no"?>
<svg
   xmlns:dc="http://purl.org/dc/elements/1.1/"
   xmlns:cc="http://creativecommons.org/ns#"
   xmlns:rdf="http://www.w3.org/1999/02/22-rdf-syntax-ns#"
   xmlns:svg="http://www.w3.org/2000/svg"
   xmlns="http://www.w3.org/2000/svg"
   xmlns:sodipodi="http://sodipodi.sourceforge.net/DTD/sodipodi-0.dtd"
   xmlns:inkscape="http://www.inkscape.org/namespaces/inkscape"
   viewBox="0 -256 1950 1950"
   id="svg3037"
   version="1.1"
   inkscape:version="0.91 r13725"
   width="100%"
   height="100%"
   sodipodi:docname="Fighter_jet_font_awesome.svg"
   inkscape:export-filename="/home/paulocanedo/development/javascript/global-action/data/images/icon-16.png"
   inkscape:export-xdpi="0.74000001"
   inkscape:export-ydpi="0.74000001">
  <metadata
     id="metadata3047">
    <rdf:RDF>
      <cc:Work
         rdf:about="">
        <dc:format>image/svg+xml</dc:format>
        <dc:type
           rdf:resource="http://purl.org/dc/dcmitype/StillImage" />
      </cc:Work>
    </rdf:RDF>
  </metadata>
  <defs
     id="defs3045" />
  <sodipodi:namedview
     pagecolor="#ffffff"
     bordercolor="#666666"
     borderopacity="1"
     objecttolerance="10"
     gridtolerance="10"
     guidetolerance="10"
     inkscape:pageopacity="0"
     inkscape:pageshadow="2"
     inkscape:window-width="1680"
     inkscape:window-height="979"
     id="namedview3043"
     showgrid="false"
     inkscape:zoom="0.26339286"
     inkscape:cx="77.773261"
     inkscape:cy="893.0479"
     inkscape:window-x="1440"
     inkscape:window-y="27"
     inkscape:window-maximized="1"
     inkscape:current-layer="svg3037" />
  <path
     style="fill:#212121;fill-opacity:1"
     inkscape:connector-curvature="0"
     id="path3041"
     d="m 1647.1864,613.0508 q 261,58 287,93 l 1,3 q -1,32 -288,96 l -352,32 -224,64 -64,0 -292.99996,352 69,0 q 26,0 45,4.5 19,4.5 19,11.5 0,7 -19,11.5 -19,4.5 -45,4.5 l -96,0 -160,0 -64,0 0,-32 64,0 0,-416 -160,0 -192,224 -95.999999,0 -32,-32 0,-192 32,0 0,-32 127.999999,0 0,-8 -191.999999,-24 0,-128 191.999999,-24 0,-8 -127.999999,0 0,-32 -32,0 0,-192 32,-32 95.999999,0 192,224 160,0 0,-416 -64,0 0,-32 64,0 160,0 96,0 q 26,0 45,4.5 19,4.5 19,11.5 0,7 -19,11.5 -19,4.5 -45,4.5 l -69,0 292.99996,352 64,0 224,64 z" />
</svg>
